# xmcd
#
# Track frame offsets:
#	150
#	14802
#	34605
#	52444
#	66631
#	84963
#	103905
#	120006
#	136899
#	153490
#	170276
#
# Disc length: 2528 seconds
#
# Revision: 0
# Processed by: cddbd v1.5.2PL0 Copyright (c) Steve Scherf et al.
# Submitted via: VUPlayer 2.49
#
DISCID=9409de0b
DTITLE=Sabrina Weeks and Swing Cat Bounce - Tales from Lenny's Diner
DYEAR=2010
DGENRE=Blues Female
TTITLE0=Boogie Downtown
TTITLE1=Fingers in my Pocket
TTITLE2=Something's Got a Hold on Me
TTITLE3=Thinking of You
TTITLE4=Bad Boys
TTITLE5=Detour
TTITLE6=Ain't my Time to Sing the Blues
TTITLE7=All That Love
TTITLE8=Wrath of Mom
TTITLE9=Spend a Little Time
TTITLE10=Independent Woman
EXTD=
EXTT0=
EXTT1=
EXTT2=
EXTT3=
EXTT4=
EXTT5=
EXTT6=
EXTT7=
EXTT8=
EXTT9=
EXTT10=
PLAYORDER=
